<svg width="200" height="70" viewBox="0 0 200 70" fill="none" xmlns="http://www.w3.org/2000/svg">
<g clip-path="url(#clip0)">
<rect width="200" height="70" rx="10" fill="#181818"/>
<path d="M56.0449 20.252C56.0449 20.4277 56.014 20.6182 55.9521 20.8232C55.8903 21.0251 55.7894 21.2139 55.6494 21.3896C55.5127 21.5622 55.332 21.707 55.1074 21.8242C54.8861 21.9414 54.6159 22 54.2969 22H52.0068C51.8311 22 51.6406 21.9691 51.4355 21.9072C51.2337 21.8454 51.0449 21.7461 50.8691 21.6094C50.6966 21.4694 50.5518 21.2887 50.4346 21.0674C50.3174 20.8428 50.2588 20.571 50.2588 20.252C50.2588 20.0762 50.2897 19.8857 50.3516 19.6807C50.4134 19.4756 50.5127 19.2868 50.6494 19.1143C50.7894 18.9385 50.9701 18.792 51.1914 18.6748C51.416 18.5576 51.6878 18.499 52.0068 18.499H54.2969V19.71H52.0068C51.8343 19.71 51.7008 19.7637 51.6064 19.8711C51.512 19.9753 51.4648 20.1055 51.4648 20.2617C51.4648 20.4277 51.5186 20.5579 51.626 20.6523C51.7367 20.7435 51.8669 20.7891 52.0166 20.7891H54.2969C54.4694 20.7891 54.6029 20.737 54.6973 20.6328C54.7917 20.5286 54.8389 20.3984 54.8389 20.2422V18.4697C54.8389 18.3037 54.7868 18.1719 54.6826 18.0742C54.5817 17.9766 54.4531 17.9277 54.2969 17.9277H51.5088V16.7217H54.2969C54.4727 16.7217 54.6615 16.7526 54.8633 16.8145C55.0684 16.8763 55.2572 16.9772 55.4297 17.1172C55.6055 17.2539 55.752 17.4346 55.8691 17.6592C55.9863 17.8805 56.0449 18.1507 56.0449 18.4697V20.252ZM62.9004 21.3604C62.9004 21.4515 62.8841 21.5361 62.8516 21.6143C62.819 21.6924 62.7734 21.7607 62.7148 21.8193C62.6595 21.8747 62.5928 21.9186 62.5146 21.9512C62.4398 21.9837 62.3584 22 62.2705 22H59.3994C59.2432 22 59.0755 21.9821 58.8965 21.9463C58.7207 21.9105 58.5465 21.8535 58.374 21.7754C58.2015 21.694 58.0339 21.5931 57.8711 21.4727C57.7116 21.349 57.5716 21.2008 57.4512 21.0283C57.3307 20.8525 57.2331 20.6507 57.1582 20.4229C57.0866 20.195 57.0508 19.9378 57.0508 19.6514V16.7217H58.3203V19.6514C58.3203 19.8174 58.348 19.9671 58.4033 20.1006C58.4619 20.2308 58.54 20.3431 58.6377 20.4375C58.7354 20.5319 58.8493 20.6051 58.9795 20.6572C59.113 20.7061 59.2562 20.7305 59.4092 20.7305H61.6309V16.7217H62.9004V21.3604ZM69.8828 20.2178C69.8828 20.4359 69.8551 20.6328 69.7998 20.8086C69.7445 20.9811 69.6712 21.1341 69.5801 21.2676C69.4889 21.3978 69.3831 21.5101 69.2627 21.6045C69.1423 21.6956 69.0153 21.7705 68.8818 21.8291C68.7516 21.8877 68.6182 21.9316 68.4814 21.9609C68.348 21.987 68.221 22 68.1006 22H65.8105C65.5924 22 65.3971 21.9723 65.2246 21.917C65.0521 21.8617 64.8991 21.7884 64.7656 21.6973C64.6354 21.6029 64.5231 21.4954 64.4287 21.375C64.3376 21.2546 64.2627 21.1292 64.2041 20.999C64.1455 20.8656 64.1016 20.7321 64.0723 20.5986C64.0462 20.4619 64.0332 20.335 64.0332 20.2178V18.499C64.0332 18.1735 64.0918 17.8984 64.209 17.6738C64.3294 17.446 64.4775 17.262 64.6533 17.1221C64.8324 16.9788 65.026 16.8763 65.2344 16.8145C65.4427 16.7526 65.6348 16.7217 65.8105 16.7217H68.1006V17.9912H65.8203C65.651 17.9912 65.5225 18.0352 65.4346 18.123C65.3467 18.2077 65.3027 18.333 65.3027 18.499V20.208C65.3027 20.3805 65.3451 20.5107 65.4297 20.5986C65.5176 20.6865 65.6445 20.7305 65.8105 20.7305H68.1006C68.2731 20.7305 68.4017 20.6865 68.4863 20.5986C68.571 20.5107 68.6133 20.3838 68.6133 20.2178V14.4902H69.8828V20.2178ZM72.3828 15.6377H71.1133V14.4902H72.3828V15.6377ZM72.3828 22H71.1133V16.7217H72.3828V22ZM78.4033 17.9912H76.1865V22H74.9023V17.9912H73.252V16.7217H74.9023V14.998H76.1865V16.7217H78.4033V17.9912ZM84.8975 18.4697C84.8975 18.6455 84.8665 18.8359 84.8047 19.041C84.7428 19.2428 84.6419 19.4316 84.502 19.6074C84.3652 19.7799 84.1846 19.9248 83.96 20.042C83.7386 20.1592 83.4684 20.2178 83.1494 20.2178H80.8594V19.0117H83.1494C83.3219 19.0117 83.4554 18.9596 83.5498 18.8555C83.6442 18.748 83.6914 18.6162 83.6914 18.46C83.6914 18.2939 83.6377 18.1637 83.5303 18.0693C83.4261 17.9749 83.2992 17.9277 83.1494 17.9277H80.8594C80.6868 17.9277 80.5534 17.9814 80.459 18.0889C80.3646 18.193 80.3174 18.3232 80.3174 18.4795V20.252C80.3174 20.4212 80.3695 20.5531 80.4736 20.6475C80.5811 20.7419 80.7129 20.7891 80.8691 20.7891H83.1494V22H80.8594C80.6836 22 80.4932 21.9691 80.2881 21.9072C80.0863 21.8454 79.8975 21.7461 79.7217 21.6094C79.5492 21.4694 79.4043 21.2887 79.2871 21.0674C79.1699 20.8428 79.1113 20.571 79.1113 20.252V18.4697C79.1113 18.2939 79.1423 18.1051 79.2041 17.9033C79.266 17.6982 79.3652 17.5094 79.502 17.3369C79.6419 17.1611 79.8226 17.0146 80.0439 16.8975C80.2686 16.7803 80.5404 16.7217 80.8594 16.7217H83.1494C83.3252 16.7217 83.514 16.7526 83.7158 16.8145C83.9209 16.8763 84.1097 16.9772 84.2822 17.1172C84.458 17.2539 84.6045 17.4346 84.7217 17.6592C84.8389 17.8805 84.8975 18.1507 84.8975 18.4697ZM91.543 20.2178C91.543 20.4359 91.5153 20.6328 91.46 20.8086C91.4046 20.9811 91.3314 21.1341 91.2402 21.2676C91.1491 21.3978 91.0433 21.5101 90.9229 21.6045C90.8024 21.6956 90.6755 21.7705 90.542 21.8291C90.4118 21.8877 90.2783 21.9316 90.1416 21.9609C90.0081 21.987 89.8812 22 89.7607 22H87.4707C87.2526 22 87.0573 21.9723 86.8848 21.917C86.7122 21.8617 86.5592 21.7884 86.4258 21.6973C86.2956 21.6029 86.1833 21.4954 86.0889 21.375C85.9977 21.2546 85.9229 21.1292 85.8643 20.999C85.8057 20.8656 85.7617 20.7321 85.7324 20.5986C85.7064 20.4619 85.6934 20.335 85.6934 20.2178V18.499C85.6934 18.1735 85.752 17.8984 85.8691 17.6738C85.9896 17.446 86.1377 17.262 86.3135 17.1221C86.4925 16.9788 86.6862 16.8763 86.8945 16.8145C87.1029 16.7526 87.2949 16.7217 87.4707 16.7217H89.7607V17.9912H87.4805C87.3112 17.9912 87.1826 18.0352 87.0947 18.123C87.0068 18.2077 86.9629 18.333 86.9629 18.499V20.208C86.9629 20.3805 87.0052 20.5107 87.0898 20.5986C87.1777 20.6865 87.3047 20.7305 87.4707 20.7305H89.7607C89.9333 20.7305 90.0618 20.6865 90.1465 20.5986C90.2311 20.5107 90.2734 20.3838 90.2734 20.2178V14.4902H91.543V20.2178ZM101.826 20.2178C101.826 20.3382 101.812 20.4652 101.782 20.5986C101.756 20.7321 101.714 20.8656 101.655 20.999C101.597 21.1292 101.52 21.2546 101.426 21.375C101.335 21.4954 101.222 21.6029 101.089 21.6973C100.959 21.7884 100.807 21.8617 100.635 21.917C100.462 21.9723 100.267 22 100.049 22H97.7588C97.6383 22 97.5114 21.987 97.3779 21.9609C97.2445 21.9316 97.111 21.8877 96.9775 21.8291C96.8473 21.7705 96.722 21.6956 96.6016 21.6045C96.4811 21.5101 96.3737 21.3978 96.2793 21.2676C96.1882 21.1341 96.1149 20.9811 96.0596 20.8086C96.0042 20.6328 95.9766 20.4359 95.9766 20.2178V14.4902H97.2461V20.2178C97.2461 20.374 97.2949 20.4993 97.3926 20.5938C97.4902 20.6849 97.6123 20.7305 97.7588 20.7305H100.049C100.208 20.7305 100.332 20.6833 100.42 20.5889C100.511 20.4945 100.557 20.3708 100.557 20.2178V18.499C100.557 18.3395 100.509 18.2158 100.415 18.1279C100.321 18.0368 100.199 17.9912 100.049 17.9912H97.7588V16.7217H100.049C100.169 16.7217 100.296 16.7363 100.43 16.7656C100.563 16.7917 100.695 16.834 100.825 16.8926C100.959 16.9512 101.086 17.0277 101.206 17.1221C101.326 17.2132 101.432 17.3255 101.523 17.459C101.615 17.5892 101.688 17.7406 101.743 17.9131C101.799 18.0856 101.826 18.2809 101.826 18.499V20.2178ZM108.73 22.5078C108.73 22.7259 108.703 22.9212 108.647 23.0938C108.592 23.2695 108.519 23.4225 108.428 23.5527C108.337 23.6862 108.231 23.7985 108.11 23.8896C107.99 23.984 107.863 24.0605 107.729 24.1191C107.599 24.1777 107.467 24.2201 107.334 24.2461C107.201 24.2754 107.074 24.29 106.953 24.29H104.663V23.0205H106.953C107.122 23.0205 107.249 22.9766 107.334 22.8887C107.419 22.8008 107.461 22.6738 107.461 22.5078V16.7217H108.73V22.5078ZM106.953 22H104.663C104.481 22 104.285 21.9691 104.077 21.9072C103.872 21.8454 103.68 21.7445 103.501 21.6045C103.322 21.4613 103.174 21.2773 103.057 21.0527C102.939 20.8249 102.881 20.5465 102.881 20.2178V16.7217H104.15V20.2178C104.15 20.3838 104.194 20.5107 104.282 20.5986C104.37 20.6865 104.5 20.7305 104.673 20.7305H106.953V22Z" fill="#ACACAC"/>
<path d="M54.9653 38.3359H69.6768V28.8936H73.8662V52H69.6768V42.5576H54.9653V52H50.7759V28.8936H54.9653V38.3359ZM96.1992 46.2314C96.1992 46.8115 96.0972 47.4399 95.8931 48.1167C95.689 48.7827 95.356 49.4058 94.894 49.9858C94.4429 50.5552 93.8467 51.0332 93.1055 51.4199C92.375 51.8066 91.4834 52 90.4307 52H82.8735C82.2935 52 81.665 51.8979 80.9883 51.6938C80.3223 51.4897 79.6992 51.1621 79.1191 50.7109C78.5498 50.249 78.0718 49.6528 77.6851 48.9224C77.2983 48.1812 77.105 47.2842 77.105 46.2314C77.105 45.6514 77.207 45.0229 77.4111 44.3462C77.6152 43.6694 77.9429 43.0464 78.394 42.4771C78.856 41.897 79.4521 41.4136 80.1826 41.0269C80.9238 40.6401 81.8208 40.4468 82.8735 40.4468H90.4307V44.4429H82.8735C82.3042 44.4429 81.8638 44.6201 81.5522 44.9746C81.2407 45.3184 81.085 45.748 81.085 46.2637C81.085 46.8115 81.2622 47.2412 81.6167 47.5527C81.9819 47.8535 82.4116 48.0039 82.9058 48.0039H90.4307C91 48.0039 91.4404 47.832 91.752 47.4883C92.0635 47.1445 92.2192 46.7148 92.2192 46.1992V40.3501C92.2192 39.8022 92.0474 39.3672 91.7036 39.0449C91.3706 38.7227 90.9463 38.5615 90.4307 38.5615H81.23V34.5815H90.4307C91.0107 34.5815 91.6338 34.6836 92.2998 34.8877C92.9766 35.0918 93.5996 35.4248 94.1689 35.8867C94.749 36.3379 95.2324 36.9341 95.6191 37.6753C96.0059 38.4058 96.1992 39.2974 96.1992 40.3501V46.2314ZM116.615 46.1187C116.615 46.8384 116.523 47.4883 116.341 48.0684C116.158 48.6377 115.917 49.1426 115.616 49.583C115.315 50.0127 114.966 50.3833 114.568 50.6948C114.171 50.9956 113.752 51.2427 113.312 51.436C112.882 51.6294 112.441 51.7744 111.99 51.8711C111.55 51.957 111.131 52 110.733 52H99.3896V47.8105H110.701C111.271 47.8105 111.7 47.6655 111.99 47.3755C112.28 47.0854 112.425 46.6665 112.425 46.1187C112.372 45.0015 111.808 44.4429 110.733 44.4429H104.24C103.316 44.4429 102.532 44.2817 101.887 43.9595C101.243 43.6372 100.716 43.2344 100.308 42.751C99.9106 42.2676 99.6206 41.7466 99.438 41.188C99.2661 40.6294 99.1802 40.1084 99.1802 39.625C99.1802 38.6904 99.3467 37.9062 99.6797 37.2725C100.013 36.6279 100.432 36.1069 100.937 35.7095C101.441 35.312 101.989 35.0273 102.58 34.8555C103.171 34.6729 103.724 34.5815 104.24 34.5815H114.536V38.771H104.272C104.057 38.771 103.885 38.7979 103.756 38.8516C103.638 38.8945 103.547 38.959 103.482 39.0449C103.429 39.1201 103.396 39.2061 103.386 39.3027C103.375 39.3887 103.37 39.4746 103.37 39.5605C103.38 39.7324 103.413 39.8667 103.466 39.9634C103.52 40.0601 103.584 40.1299 103.66 40.1729C103.746 40.2158 103.837 40.2427 103.934 40.2534C104.041 40.2534 104.143 40.2534 104.24 40.2534H110.733C111.808 40.2534 112.721 40.4468 113.473 40.8335C114.225 41.2202 114.832 41.709 115.293 42.2998C115.755 42.8799 116.088 43.5137 116.292 44.2012C116.507 44.8887 116.615 45.5278 116.615 46.1187ZM138.932 52H134.742V40.4468C134.742 39.8989 134.603 39.4854 134.323 39.2061C134.044 38.916 133.625 38.771 133.066 38.771H125.509V34.5815H133.066C133.464 34.5815 133.883 34.6299 134.323 34.7266C134.764 34.8125 135.199 34.9521 135.628 35.1455C136.069 35.3389 136.488 35.5913 136.885 35.9028C137.283 36.2036 137.632 36.5742 137.933 37.0146C138.233 37.4443 138.475 37.9438 138.658 38.5132C138.84 39.0825 138.932 39.7271 138.932 40.4468V52ZM123.817 52H119.628V27.2178H123.817V52ZM162.231 42.5576H149.002V38.3359H162.231V42.5576ZM164.117 52H149.002C148.422 52 147.789 51.8979 147.101 51.6938C146.414 51.4897 145.774 51.1567 145.184 50.6948C144.604 50.2222 144.115 49.6152 143.717 48.874C143.331 48.1221 143.137 47.2036 143.137 46.1187V31.0044C143.137 30.7144 143.191 30.4404 143.298 30.1826C143.406 29.9248 143.551 29.6992 143.733 29.5059C143.927 29.3125 144.152 29.1621 144.41 29.0547C144.668 28.9473 144.947 28.8936 145.248 28.8936H164.117V33.083H147.327V46.1187C147.327 46.6665 147.472 47.0854 147.762 47.3755C148.052 47.6655 148.476 47.8105 149.035 47.8105H164.117V52ZM187.61 34.5815L180.085 42.7993L188.561 52H182.792L177.217 45.9253L171.642 52H165.857L174.316 42.7671L166.824 34.5815H172.56L177.185 39.625L181.841 34.5815H187.61Z" fill="#F5F5F5"/>
<path d="M14.3535 24.9824H19.9175L21.8325 16.4424H28.1211L26.2319 24.9824H32.7017L34.5908 16.4424H40.9053L38.9902 24.9824H44.9424L43.5967 31.0122H37.6704L36.2988 37.3267H42.0181L40.6982 43.3564H34.979L33.064 52H26.7495L28.6646 43.3564H22.1948L20.2798 52H13.9912L15.8804 43.3564H10.0059L11.4292 37.3267H17.2002L18.5977 31.0122H12.9302L14.3535 24.9824ZM23.5146 37.3267H29.9844L31.356 31.0122H24.8862L23.5146 37.3267Z" fill="#C2F051"/>
</g>
<defs>
<clipPath id="clip0">
<rect width="200" height="70" rx="10" fill="white"/>
</clipPath>
</defs>
</svg>
